<svg width="599" height="365" viewBox="0 0 599 365" fill="none" xmlns="http://www.w3.org/2000/svg">
<path d="M246.723 8.92116C250.561 9.91566 254.347 10.8926 258.021 11.8717C275.724 11.6833 287.965 11.0034 290.448 10.8862C293.943 10.7212 304.851 7.02594 319.658 4.87616C327.613 3.72116 331.612 3.08556 341.238 2.88616C349.203 2.72116 363.063 2.72116 382.913 4.25116C402.763 5.78116 427.843 8.75116 441.913 10.7462C455.983 12.7412 458.953 13.7312 464.858 16.6062C470.763 19.4812 479.343 24.1012 492.643 35.0812C505.943 46.0612 523.433 62.8912 535.068 75.0462C546.703 87.2012 552.521 94.322 557.498 102.001C567.303 117.131 574.406 128.627 579.143 141.371C582.343 149.981 586.633 162.851 589.628 174.556C592.623 186.261 594.273 196.491 594.928 212.656C595.583 228.821 595.253 250.271 594.068 265.416C592.883 280.561 590.903 289.141 586.683 299.551C582.463 309.961 576.753 322.226 571.358 329.481C563.223 340.421 554.742 347.3 543.503 352.596C531.863 358.081 522.883 362.023 507.188 362.221C494.483 362.381 472.703 362.051 454.673 360.866C436.643 359.681 422.783 357.701 399.533 352.631C376.283 347.561 344.603 339.641 316.183 331.091C287.763 322.541 263.343 313.631 234.813 309.176C206.283 304.721 174.603 304.721 154.343 304.211C134.083 303.701 125.463 302.931 117.473 301.366C102.183 298.371 87.5193 294.973 72.4577 288.326C64.0627 284.621 54.4927 279.671 45.9677 274.306C37.4427 268.941 29.8475 263.665 24.0027 257.466C12.8727 245.661 4.80118 235.977 3.74774 228.341C2.92274 222.361 2.8349 212.46 7.45274 200.471C11.6127 189.671 15.3828 182.425 25.0677 173.591C32.8627 166.481 46.3927 154.601 54.6877 147.641C62.9827 140.681 65.9527 138.701 76.6177 133.121C87.2827 127.541 105.103 118.631 115.033 113.496C124.963 108.361 126.948 107.05 128.953 105.871L129.128 105.768C136.779 101.27 146.991 95.2668 152.453 75.2862C156.273 61.3112 160.208 47.3901 165.283 37.5012C168.603 31.0312 171.264 23.5833 177.283 19.0262C183.157 14.5786 190.409 9.98761 198.237 7.58509C201.577 6.56015 205.021 5.93349 208.508 5.88616L208.858 5.8814C220.911 5.71746 233.688 5.54365 246.723 8.92116Z" fill="#B8C6DD"/>
<path d="M178.151 14.1242C177.682 14.459 176.448 15.3373 175.202 16.2777C173.958 17.2071 172.816 18.3056 172.155 19.0163C172.663 18.4274 173.809 17.2621 175.17 16.2361C177.583 14.3926 180.293 12.6156 178.151 14.1242ZM60.28 147.397C61.4153 146.449 62.5476 145.53 63.6958 144.65C61.6127 146.177 59.1376 148.212 56.8069 150.167C55.4426 151.31 54.131 152.421 53.0079 153.369C52.5115 153.788 53.7502 152.642 52.5773 153.64C51.414 154.631 51.6944 154.511 50.0096 155.973C48.1128 157.604 39.4229 165.104 36.4581 167.751C33.3808 170.481 30.3073 173.233 27.2719 176.008C19.3609 182.951 14.2032 191.56 10.5298 201.604C14.8245 190.958 12.4009 196.534 10.4063 201.609C9.81259 203.137 9.32043 204.622 9.03941 205.555C9.11295 206.468 7.77344 206.185 6.62917 220.678C6.65509 226.916 6.60079 225.019 6.85085 227.913C7.01145 229.019 7.35382 231.18 9.90386 235.381C5.23396 225.134 8.91233 235.346 15.3998 242.787C16.1638 243.826 21.8157 250.405 26.4058 255.2C27.5573 256.423 28.675 257.491 29.5797 258.316C31.0385 259.658 33.432 261.54 35.5703 263.143C37.0424 264.248 38.1389 265.113 40.4142 266.674C42.8201 268.319 45.275 269.902 47.7571 271.463C56.0624 276.66 64.7753 281.236 73.8111 285.26C73.9119 285.304 74.0128 285.349 74.1136 285.393C74.0069 285.35 73.9046 285.309 73.8068 285.269C70.9367 284.095 71.8519 284.537 73.7558 285.385C76.0294 286.408 79.7822 287.856 80.0882 287.971C82.8945 289.217 70.0727 283.91 75.1134 286.075C82.1676 289.095 89.4747 291.522 96.9331 293.515C90.8207 291.852 105.087 295.482 107.772 296.028C107.36 295.859 111.873 296.88 118.108 298.126C128.493 300.365 144.613 300.758 148.146 300.88C149.185 300.893 143.258 300.654 154.424 300.979C155.785 301.015 157.454 301.057 159.398 301.102C161.34 301.148 160.588 301.193 161.602 301.208C162.218 301.218 165.88 301.094 169.778 301.285C171.211 301.372 162.063 301.228 182.129 301.723C174.131 301.175 210.001 302.685 216.597 303.707C215.281 303.555 213.966 303.41 212.648 303.271C219.167 303.914 220.349 304.015 221.818 304.17C225.808 304.615 230.803 305.284 235.307 306.011C237.49 306.361 239.548 306.719 241.332 307.04C247.729 308.233 247.781 308.102 255.162 309.821C253.416 309.388 251.666 308.969 249.915 308.566C255.033 309.667 260.118 310.907 265.165 312.247C253.408 309.395 267.698 312.882 268.617 313.179C270.107 313.583 267.952 313.057 270.441 313.737C270.697 313.81 270.347 313.634 274.171 314.717C282.144 317.015 280.851 316.747 284.183 317.747C284.486 317.841 283.442 317.452 289.179 319.205C307.365 324.831 289.085 319.21 288.374 319.01C287.445 318.753 293.659 320.836 278.153 316.091C283.37 317.664 283.856 317.939 284.442 318.116C284.966 318.268 293.961 321.038 294.454 321.194C298.878 322.541 295.015 321.257 295.879 321.514C296.587 321.724 307.358 325.199 309.946 325.764C315.051 327.541 306.926 325.036 298.252 322.34C296.98 321.985 306.474 324.998 306.976 325.15C319.237 328.931 312.504 326.678 315.21 327.4C315.642 327.513 316.402 327.742 317.124 327.961C318.752 328.455 320.179 328.905 317.145 327.894C317.107 327.881 317.069 327.869 317.031 327.856C317.069 327.867 317.108 327.879 317.146 327.89C328.138 331.145 321.403 329.227 322.115 329.455C323.196 329.795 327.117 330.891 327.607 331.035C328.324 331.25 325.81 330.58 328.64 331.412C329.11 331.55 333.706 332.773 327.825 331.046C335.693 333.309 335.072 333.035 337.706 333.928C343.22 335.155 341.609 335.176 343.749 335.776C349.442 337.357 347.848 336.69 348.151 336.762C350.238 337.276 366.057 341.448 370.006 342.363C368.413 342.147 357.427 339.195 354.964 338.569C346.735 336.535 366.512 341.64 360.5 340.292C363.019 340.88 365.529 341.458 368.05 342.03C372.615 343.29 366.077 341.763 378.463 344.725C380.515 345.111 369.71 342.615 371.892 343.053C373.17 343.321 380.355 345.046 380.506 345.049C380.653 345.055 374.157 343.526 375.192 343.723C377.439 344.208 401.123 349.809 383.064 345.667C388.085 346.847 390.646 347.658 395.028 348.574C397.605 349.107 384.791 345.994 400.232 349.422C401.822 349.768 403.663 350.168 405.879 350.638C406.161 350.757 403.015 350.099 400.22 349.48C398.111 349.014 396.18 348.571 396.064 348.548C395.693 348.478 397.468 349.11 397.774 349.188C397.955 349.235 398.846 349.434 400.167 349.721C406.658 351.215 424.187 354.502 428.481 355.13C426.434 354.833 447.05 357.507 449.347 357.452C449.949 357.49 447.708 357.226 448.352 357.27C449.816 357.372 452.194 357.564 454.877 357.757C459.538 358.098 465.121 358.426 468.342 358.559C474.022 358.79 473.306 358.678 473.623 358.693C476.124 358.78 474.125 358.762 475.653 358.811C477.958 358.925 493.845 359.233 494.637 359.193C494.873 359.192 492.283 359.09 495.744 359.103C496.332 359.089 495.972 359.251 506.201 359.146C506.548 359.141 506.863 359.136 507.149 359.131C511.994 358.975 509.958 359.021 507.148 359.044C504.126 359.049 500.203 359.004 502.767 358.95C504.641 358.977 506.061 358.981 507.147 358.975C510.594 358.933 510.801 358.798 512.38 358.704C513.088 358.65 518.44 358.41 523.985 356.904C520.009 357.979 515.919 358.626 511.767 358.923C515.884 358.796 523.617 357.281 526.793 356.172C528.354 355.671 527.109 356.237 530.477 355.017C531.177 354.67 533.972 353.702 525.139 356.64C524.407 356.778 528.656 355.575 530.579 354.778C530.872 354.66 531.975 354.111 534.469 353.148C535.032 352.863 529.613 355.86 542.204 349.84C543.112 349.396 544.103 348.891 545.18 348.304C545.685 348.032 543.89 348.899 544.383 348.633C544.739 348.482 548.715 346.306 549.116 346.009C549.55 345.741 547.647 346.809 548.164 346.488C550.81 344.854 554.337 342.778 548.912 346.22C550.77 345.135 552.57 343.964 554.305 342.702C552.36 343.931 557.005 340.691 559.147 338.617C566.011 332.001 566.616 330.341 566.41 330.714C566.131 331.007 564.561 332.805 565.6 331.525C568.04 328.425 567.373 329.454 568.834 327.604C569.309 326.987 570.023 326.011 571.083 324.304C571.334 323.55 566.699 332.037 575.88 315.663C574.613 318.152 573.287 320.599 571.867 322.95C572.899 321.742 576.7 314.17 576.939 313.553C580.119 306.803 578.137 311.453 582.472 301.212C582.72 300.608 583.177 299.55 583.676 298.332C583.938 297.696 584.205 297.022 584.457 296.348C585.87 292.421 585.041 294.781 583.613 298.307C582.068 302.135 579.785 307.247 579.627 307.49C579.561 307.599 581.579 303.149 583.543 298.278C585.757 292.982 587.357 287.151 587.441 286.771C588.427 283.809 584.66 296.056 585.412 293.74C585.996 293.195 590.404 276.807 590.811 265.161C591.118 261.201 591.29 257.927 591.382 256.312C591.776 249.042 592.045 245.753 591.804 245.704C592.109 243.651 591.977 241.829 591.996 240.894C592.175 229.61 592.161 229.585 591.985 219.915C591.934 217.78 591.952 215.986 591.914 215.227C591.89 214.788 591.842 215.614 591.738 213.465C591.729 213.288 591.718 213.06 591.706 212.787C591.674 208.381 590.252 192.654 589.925 191.454C589.818 190.134 590.924 198.879 590.781 197.304C590.084 190.953 589.009 184.951 587.52 178.684C586.894 176.08 587.267 177.407 586.989 176.281C586.968 176.195 586.876 175.833 586.736 175.296C586.125 172.866 584.404 166.924 584.47 167.24C584.542 167.553 585.581 171.108 586.652 175.318C588.763 183.174 590.276 193.396 589.445 188.602C589.212 187.182 588.313 182.159 588.328 182.985C587.794 180.433 587.194 177.89 586.546 175.345C583.695 164.26 580.155 153.243 576.202 142.464C572.296 131.862 566.478 121.943 560.327 112.15C566.23 121.376 572.306 131.639 576.27 142.439C577.689 146.277 579.03 150.144 580.297 153.946C580.987 155.953 583.118 162.795 582.92 161.944C581.051 155.844 578.785 149.055 576.322 142.419C573.764 135.506 570.385 128.924 567.202 123.308C567.003 122.958 567.792 124.208 567.053 122.894C565.713 120.429 560.787 112.642 559.957 111.324C559.825 111.092 562.683 115.498 561.883 114.116C559.829 110.567 559 109.855 557.094 106.879C556.759 106.357 556.013 105.184 555.009 103.614C551.775 98.2419 544.35 89.2301 541.888 86.692C538.689 83.1091 550.553 96.8777 549.482 95.9875C544.357 89.4494 538.562 83.2004 532.839 77.1793C530.173 74.3826 527.49 71.6441 524.845 69.0024C524.698 68.8569 525.925 70.173 524.063 68.3263C520.815 65.1182 520.017 64.2229 518.438 62.6614C516.74 60.9665 510.596 55.1362 509.783 54.3476C509.681 54.2452 510.994 55.3537 511.185 55.5311C513.895 58.037 514.755 59.0362 514.997 59.2678C515.906 60.1446 516.829 60.9725 517.654 61.7754C519.012 63.0996 519.729 63.8555 521.511 65.6138C522.735 66.8255 521.608 65.5999 522.789 66.7727C523.229 67.1981 527.747 71.989 528.302 72.2994C528.555 72.311 503.501 47.3952 490.835 37.2703C487.881 34.8318 485.684 33.1519 484.874 32.5428C486.875 34.0898 488.847 35.6799 490.802 37.3104C492.371 38.6184 493.926 39.9486 495.472 41.2948C493.962 39.9774 492.371 38.6263 490.791 37.3238C485.016 32.5195 479.274 28.5597 478.863 28.0784C473.995 24.6891 468.959 21.6766 463.639 19.1101C456.964 15.4839 449.396 14.6967 441.523 13.4914C422.018 10.7899 402.33 8.56121 382.702 6.98497C381.536 6.89445 380.38 6.80844 379.226 6.7263C373.032 6.30253 376.438 6.32076 366.244 5.85474C368.87 6.017 371.514 6.20268 374.138 6.40778C368.929 5.89453 345.759 5.27177 342.038 5.56283C341.871 5.56723 341.682 5.58625 341.294 5.61467C340.521 5.67798 338.927 5.73869 335.162 5.94524C330.126 6.27328 329.337 6.33711 326.637 6.64577C324.375 6.9258 321.804 7.33497 321.122 7.42696C320.759 7.47686 320.554 7.47779 320.043 7.53081C319.813 7.55441 319.523 7.58873 319.134 7.64424C315.234 8.22955 318.414 7.87169 314.518 8.3514C315.456 8.17539 316.394 8.00739 317.341 7.84623C312.626 8.57352 306.212 9.84902 313.112 8.42829C314.302 8.19937 313.289 8.44485 314.176 8.28217C316.358 7.8852 318.298 7.57384 320.013 7.32345C338.821 4.80077 330.468 5.73725 320.004 7.26052C316.164 7.81451 312.074 8.59091 309.001 9.26496C306.522 9.5612 296.971 12.3715 290.561 13.2799C288.674 13.3749 287.321 13.4406 287.183 13.4424C286.345 13.4571 289.442 13.2465 285.372 13.3755C284.528 13.4917 260.299 14.1918 269.023 13.8504C270.821 13.8058 282.429 13.4553 285.226 13.3025C278.648 13.4601 263.209 14.0739 261.474 14.0633C254.476 14.1422 274.922 13.6937 259.151 13.9182C258.124 13.9291 257.286 13.937 256.566 13.9438C248.796 13.9851 258.02 14.0528 253.733 14.1149C251.103 14.2184 237.334 13.749 237.696 13.8733C232.961 13.6691 235.735 13.7066 235.152 13.6735C234.588 13.6714 225.263 13.1061 222.181 12.505C221.811 12.445 222.994 12.5319 222.609 12.4675C222.362 12.4246 221.178 12.2636 219.684 11.9538C216.965 11.3504 213.069 10.9396 212.834 10.9328C212.613 10.9109 214.656 11.213 213.811 11.1382C212.871 10.9595 204.414 10.4911 203.876 10.4738C203.27 10.4714 213.719 11.0678 211.952 11.0769C208.03 10.6693 201.77 10.706 197.662 9.94245C197.532 9.91872 197.175 9.80055 197.056 9.74382C196.409 9.44369 195.834 9.1988 195.367 9.01051C195.607 9.10647 196.257 9.38251 197.048 9.7604C197.168 9.81755 197.528 9.93663 197.658 9.96054C199.523 10.318 202.021 10.5341 203.114 10.6114C202.725 10.6438 199.978 10.5007 197.641 10.0556C197.505 10.0308 197.131 9.90698 197.006 9.84756C195.086 8.93087 193.538 8.32986 195.106 8.90873C193.151 8.16782 194.463 8.72908 193.349 8.35268C193.064 8.23285 190.253 7.30698 189.693 7.20526C189.627 7.16552 192.519 8.12435 191.927 7.97023C191.257 7.75004 187.438 6.59587 184.594 6.28288C184.574 6.28039 184.513 6.2714 184.492 6.26816C182.385 5.84251 181.445 5.58586 181.124 5.53844C180.503 5.4148 180.769 5.44621 181.438 5.56367C182.135 5.67455 183.075 5.93722 184.506 6.18472C184.526 6.18786 184.585 6.19658 184.605 6.19899C185.832 6.33411 186.976 6.55004 187.201 6.57617C187.241 6.58198 185.991 6.28672 184.618 6.09018C184.599 6.08788 184.543 6.07952 184.524 6.0765C182.388 5.60518 180.936 5.22966 180.812 5.22421C180.699 5.12693 182.36 5.49484 184.546 5.94527C184.563 5.94813 184.617 5.95605 184.635 5.95824C185.983 6.12161 187.137 6.36124 186.799 6.25118C186.081 6.10445 185.362 5.97995 184.645 5.88129C184.627 5.87917 184.575 5.8715 184.558 5.86874C183.273 5.62834 182.42 5.35699 181.458 5.16751C182.343 5.31697 183.193 5.56543 184.568 5.80731C184.585 5.81 184.635 5.81746 184.652 5.81952C188.636 6.26104 193.543 7.82188 197.14 9.56965C197.25 9.62185 197.578 9.7306 197.697 9.75243C200.716 10.2903 203.116 10.3627 204.299 10.4119C202.14 10.2871 199.896 10.1095 197.707 9.70061C197.591 9.67929 197.27 9.57312 197.163 9.52215C191.871 6.94659 186.7 5.92527 184.679 5.60496C184.664 5.6031 184.618 5.59634 184.603 5.59391C183.807 5.42647 183.477 5.2943 183.485 5.25601C183.497 5.22432 183.925 5.31183 184.633 5.40955C184.647 5.41177 184.689 5.41792 184.703 5.41961C185.939 5.50837 187.899 5.88792 187.79 5.8522C187.518 5.75069 186.149 5.45423 184.719 5.2872C184.707 5.28563 184.668 5.27992 184.655 5.27786C182.599 4.86415 181.055 4.53216 180.887 4.52196C180.71 4.48544 180.629 4.46692 180.63 4.46171C180.63 4.46171 180.63 4.4617 180.63 4.4617C180.695 4.42849 182.294 4.74542 184.662 5.23453C184.675 5.23654 184.712 5.2421 184.725 5.24364C186.977 5.4922 189.395 6.11513 189.614 6.16353C190.327 6.28039 186.67 5.23255 186.672 5.23856C186.82 5.14549 192.733 6.7119 190.762 6.09955C189.416 5.63341 186.554 4.96089 184.786 4.75775C184.777 4.75666 184.75 4.75269 184.742 4.75127C183.775 4.57667 183.223 4.41574 183.157 4.40433C182.858 4.31228 183.48 4.48489 184.749 4.70762C184.757 4.70899 184.783 4.71281 184.792 4.71386C187.232 4.92129 191.591 6.14395 191.767 6.221C191.931 6.19111 187.05 4.84206 186.893 4.8702C186.778 4.79148 190.548 5.58441 192.01 6.04217C193.111 6.33418 189.957 5.31647 190.513 5.48701C190.81 5.52486 195.279 6.95969 197.781 8.23949C197.818 8.25712 197.929 8.29384 197.969 8.30122C199.11 8.51247 199.952 8.60731 200.08 8.62274C200.756 8.70071 198.607 8.34682 198.924 8.37011C199.371 8.44812 202.34 8.78048 201.954 8.71036C201.847 8.68765 200.098 8.5367 198.006 8.10496C197.976 8.09955 197.895 8.07256 197.868 8.0596C194.892 6.48928 190.77 5.15611 190.82 5.15487C191.035 4.90555 202.189 9.46418 191.818 5.19326C191.749 5.14789 189.107 4.44342 189.029 4.44388C187.391 4.02179 196 5.79967 185.48 3.60107C204.832 8.57419 188.002 3.82155 190.886 4.45973C191.764 4.60229 196.322 6.17376 198.288 7.18655L198.184 7.15246C198.826 7.2678 199.242 7.32379 199.25 7.32373C199.026 7.26513 198.64 7.19295 198.193 7.10453L198.309 7.14261C197.376 6.67639 196.109 6.15563 195.574 5.91489C195.357 5.81547 196.961 6.42526 198.346 7.06653L198.209 7.02152C199.604 7.25256 200.852 7.34423 200.109 7.23038C199.888 7.19314 199.156 7.0959 198.228 6.91936L198.391 6.97289C196.166 5.84042 192.463 4.57051 192.246 4.52393C189.431 3.61821 192.919 4.61408 192.307 4.39549C191.92 4.18447 187.528 3.0781 187.399 3.10804C187.233 2.9714 193.222 4.40806 194.404 4.93498C195.335 5.23181 191.889 3.98594 192.534 4.20545C194.353 4.73814 197.021 5.83821 198.566 6.60975L198.302 6.52317C199.823 6.79264 200.385 6.87357 198.315 6.45311L198.597 6.54554C198.129 6.30148 197.517 5.99248 196.73 5.62758C196.274 5.38341 193.279 4.2693 193.182 4.26001C191.34 3.54028 196.899 5.48284 197.847 5.96424C199.559 6.58202 191.73 3.29233 198.243 6.02372C193.627 3.90767 190.824 2.91072 185.124 2.07512L185.18 2.08311C184.983 2.05165 184.775 2.01024 184.55 1.96114C184.772 2.00967 184.981 2.05122 185.18 2.08292L185.125 2.07492C192.301 3.03675 196.973 5.30978 198.817 6.08829L198.409 5.95426C199.513 6.11267 199.587 6.0886 198.427 5.85642L198.86 5.99862C197.473 5.33151 194.334 3.68368 188.587 2.37637C194.533 3.85966 193.853 3.7735 195.582 4.35835C195.999 4.51788 197.513 5.15004 198.933 5.84789L198.458 5.69198C200.624 6.10055 202.772 6.22865 200.529 5.80074C200.34 5.76117 199.402 5.64262 198.499 5.47024L199.031 5.64465C197.699 4.99777 196.341 4.44321 197.281 4.78776C197.948 5.07781 198.536 5.35049 199.052 5.60006L198.508 5.4216C204.959 6.30154 200.921 5.8111 198.517 5.3734L199.074 5.55588C198.227 5.13923 197.549 4.83955 197.547 4.83521C197.578 4.82232 198.149 5.04345 199.106 5.48774L198.531 5.29906C201.878 6.14975 212.064 5.71974 220.594 7.62398C225.648 8.62207 230.44 8.85254 232.177 8.98821C238.155 9.36204 243.517 9.31323 244.822 9.34455C249.124 9.42446 245.553 9.4347 246.514 9.47973C247.154 9.51446 252.654 9.5251 256.526 9.44165C258.566 9.40344 260.142 9.36632 260.361 9.36622C262.735 9.3647 260.33 9.48804 260.575 9.48895C263.52 9.5441 280.007 9.04578 284.627 8.81437C284.478 8.77477 275.217 9.11973 280.998 8.80868C287.717 8.42876 288.126 8.63763 288.297 8.6462C288.974 8.61311 289.658 8.57784 290.337 8.54514C299.118 6.90374 309.446 3.85484 319.321 2.55455C326.417 1.44782 333.907 0.606228 341.189 0.539012C354.391 0.268473 367.601 0.781393 380.73 1.73029C380.363 1.47134 360.034 0.505712 359.559 0.582252C357.776 0.445761 371.981 0.845905 383.104 1.76991C388.925 2.22192 393.905 2.70508 395.345 2.85607C392.167 2.52748 388.979 2.21488 385.791 1.92556C391.261 2.19518 403.265 3.54995 411.115 4.35576C413.654 4.61131 408.793 4.01884 408.892 4.02749C411.749 4.27147 416.316 4.83276 412.887 4.5315C419.845 5.23459 418.824 5.20897 424.152 5.84877C424.428 5.88303 422.145 5.54163 426.364 6.02773C428.352 6.24401 438.87 7.60424 440.298 7.76431C440.874 7.81646 435.573 6.8523 434.876 6.97819C423.44 5.41225 431.2 6.60254 426.755 6.04165C426.067 5.96517 427.657 6.00118 416.433 4.75766C418.599 4.77264 431.494 6.49231 433.708 6.77443C438.271 7.29074 419.481 4.81705 416.006 4.63262C417.638 4.65335 414.674 4.45252 410.474 3.9884C405.878 3.48542 407.886 3.65267 405.398 3.39025C398.587 2.69082 401.403 3.09135 395.792 2.44379C400.766 3.21657 388.652 1.83634 383.138 1.33349C382.602 1.28225 382.133 1.23786 381.749 1.20168C382.209 1.23494 382.673 1.26904 383.14 1.30397C389.855 1.80748 396.563 2.41897 403.255 3.0869C402.848 3.0281 402.441 2.96948 402.033 2.91114C403.918 3.10407 405.801 3.302 407.683 3.50466C407.38 3.48887 407.076 3.47312 406.773 3.45759C416.492 4.38783 418.837 4.81362 419.633 4.90086C426.78 5.74518 434.684 6.72525 442.33 7.80576C445.577 8.26829 448.783 8.7438 451.882 9.31301C453.416 9.87484 452.475 8.35893 463.845 12.82C466.463 14.0562 465.126 13.5005 466.127 13.9986C466.416 14.1455 466.919 14.3917 467.778 14.8205C472.55 17.0193 472.34 17.2132 473.698 17.9748C477.563 20.2353 479.831 21.7467 480.181 21.9679C484.395 24.749 490.113 29.0796 494.555 32.7653C494.953 33.0934 495.346 33.4194 495.732 33.7406C495.814 33.8085 493.469 31.7612 496.439 34.2692C497.514 35.1363 506.551 43.3292 514.333 50.5693C512.331 48.6612 510.315 46.7657 508.284 44.8854C510.752 47.02 527.219 62.763 523.253 58.85C520.851 56.419 514.676 50.8145 514.125 50.0634C517.243 53.0059 528.266 63.491 537.282 72.9264C544.261 80.1459 550.027 86.8419 550.912 87.9819C551.203 88.3349 549.347 86.2217 549.747 86.7094C550.107 87.0326 556.199 94.6524 556.863 95.7923C557.313 96.4215 554.726 92.9548 554.909 93.259C555.022 93.4088 557.888 97.2617 559.92 100.431C561.144 102.31 562.171 103.881 562.334 104.083C561.754 103.199 560.817 101.754 559.95 100.412C558.367 97.9627 556.957 95.9389 558.606 98.2557C558.799 98.5314 559.437 99.5062 559.992 100.385C560.372 100.987 560.718 101.531 560.87 101.76C562.227 103.796 561.51 102.647 560.037 100.356C557.73 96.6253 552.916 90.3892 551.743 89.0291C554.337 92.1405 557.284 96.0034 560.076 100.33C565.425 108.583 571.357 117.948 575.637 126.091C578.196 131.078 571.632 118.819 574.586 124.422C580.497 136.186 576.28 127.492 576.481 127.845C577.822 130.219 580.956 137.823 581.884 140.352C582.081 140.841 582.215 141.132 582.255 141.117C583.828 145.571 583.305 144.135 585.491 150.424C585.227 149.587 584.963 148.758 584.693 147.92C587.337 154.83 591.376 169.971 590.975 168.866C590.085 165.832 587.817 158.01 587.586 157.353C587.244 156.378 586.266 153.716 582.705 143.021C581.066 138.71 588.391 159.944 584.998 150.302C586.296 154.072 589.724 164.683 592.051 173.936C593.794 180.692 594.86 186.735 595.164 188.449C595.231 188.936 595.131 186.63 596.028 193.661C596.428 196.997 595.34 188.964 595.5 190.497C595.724 192.141 596.985 201.109 597.389 212.556C598.129 230.238 597.527 253.802 596.548 265.61C596.372 267.889 596.199 269.724 596.069 270.993C595.987 271.784 595.964 271.492 595.881 272.26C595.679 274.633 594.501 283.334 593.305 287.536C595.523 278.804 591.445 295.862 589.377 299.798C589.276 300.05 589.177 300.292 589.082 300.524C586.856 305.893 586.844 305.602 585.732 308.108C582.694 314.785 578.534 323.9 573.356 330.967C570.799 334.415 568.224 337.349 566.138 339.411C566.846 339.399 554.956 349.837 548.383 352.711C547.153 353.371 545.77 354.074 544.49 354.691C540.766 356.492 538.029 357.837 543.041 355.591C534.662 359.629 524.933 363.349 515.89 364.242C514.407 364.406 516.445 364.138 513.912 364.392C513.684 364.408 513.371 364.52 511.194 364.656C509.68 364.745 508.383 364.783 507.22 364.8C494.922 364.902 501.828 364.738 498.823 364.712C496.983 364.686 495.644 364.665 494.642 364.653C498.798 364.684 503.233 364.681 507.218 364.624C513.149 364.567 518.163 363.812 520.057 363.459C518.722 363.653 513.205 364.513 507.217 364.562C501.028 364.66 494.311 364.628 491.312 364.571C491.109 364.567 491.817 364.502 491.611 364.499C491.607 364.499 491.602 364.499 491.598 364.499C489.41 364.498 475.49 364.188 478.353 364.34C479.122 364.385 485.53 364.571 493.132 364.641C491.079 364.635 492.611 364.734 492.249 364.733C487.837 364.741 477.059 364.408 473.233 364.247C472.358 364.215 472.419 364.269 472.276 364.264C468.796 364.123 470.23 364.03 466.654 364.034C460.359 363.59 478.465 364.471 477.192 364.268C476.677 364.2 465.209 363.882 454.52 363.195C444.965 362.625 436.041 361.579 436.092 361.649C435.956 361.616 435.403 361.531 434.276 361.364C431.762 361.052 420.647 359.314 418.742 358.951C418.416 358.897 418.522 359.062 418.124 358.992C417.13 358.861 404.231 356.213 398.994 355.102C398.885 355.08 398.78 355.058 398.677 355.038C398.782 355.061 398.888 355.085 398.992 355.109C401.584 355.694 404.176 356.266 406.773 356.821C403.429 356.131 400.886 355.583 398.979 355.171C391.626 353.564 394.089 354.143 398.395 355.126C398.588 355.169 398.776 355.213 398.961 355.255C399.036 355.272 399.112 355.289 399.187 355.306C403.393 356.261 408.8 357.397 408.88 357.422C409.01 357.467 404.172 356.506 398.937 355.361C391.744 353.8 383.789 351.906 386.875 352.546C387.612 352.717 400.375 355.635 394.066 354.128C392.953 353.871 384.772 352.021 384.342 351.902C381.472 351.187 399.391 355.174 397.223 354.562C392.856 353.698 387.297 352.38 382.318 351.229C380.059 350.708 379.483 350.642 379.206 350.578C375.033 349.598 377.394 350.085 376.002 349.752C375.253 349.581 367.02 347.72 368.623 347.886C341.635 341.179 361.101 346.275 377.683 350.25C372.426 349.083 362.173 346.486 357.584 345.313C355.932 344.893 356.894 345.22 354.106 344.51C348.663 343.191 323.963 336.324 315.418 333.633C314.937 333.486 314.507 333.355 314.133 333.241C314.635 333.39 315.063 333.515 315.422 333.618C317.607 334.247 317.205 334.079 315.447 333.537C315.004 333.4 314.476 333.239 313.885 333.061C310.546 332.052 313.32 333.007 312.665 332.82C311.95 332.641 296.356 327.725 293.769 326.923C305.514 330.56 302.885 329.653 292.935 326.529C294.381 326.957 295.824 327.385 297.273 327.815C291.427 326.002 279.208 322.105 275.812 321.177C275.281 321.027 277.166 321.651 276.867 321.567C273.903 320.688 263.811 317.825 263.327 317.753C262.924 317.662 267.228 318.874 265.618 318.47C265.283 318.386 261.143 317.172 257.017 316.195C255.487 315.833 256.392 316.118 256.006 316.029C252.785 315.305 254.712 315.609 248.819 314.334C244.495 313.434 241.25 312.884 235.242 311.874C251.867 314.953 242.653 313.174 234.396 311.847C232.88 311.613 231.387 311.399 230.1 311.226C228.765 311.065 229.903 311.259 221.938 310.269C238.918 312.158 217.13 309.475 212.622 309.235C212.376 309.214 212.297 309.126 210.098 308.946C209.912 308.932 210.174 309.001 208.128 308.848C188.69 307.601 201.118 308.372 197.429 308.085C195.857 307.959 186.375 307.614 183.822 307.546C183.237 307.527 183.498 307.48 181.232 307.411C177.207 307.29 173.594 307.262 170.936 307.207C170.622 307.201 170.618 307.112 165.567 307.037C164.166 307.016 162.54 307.014 164.575 307.079C171.25 307.282 183.912 307.447 191.434 307.884C198.29 308.229 176.649 307.384 175.513 307.422C175.103 307.411 179.334 307.48 175.031 307.36C171.364 307.257 164.631 307.271 159.137 307.127C158.74 307.118 154.314 306.893 154.532 306.889C154.711 306.893 161.466 307.011 160.486 306.953C160.361 306.948 156.088 306.857 155.518 306.815C155.242 306.796 154.783 306.726 154.281 306.647C153.496 306.528 152.639 306.388 152.079 306.368C149.726 306.283 151.264 306.399 149.733 306.349C146.477 306.276 135.154 305.663 134.77 305.705C136.643 305.83 138.518 305.935 140.39 306.028C129.96 305.491 134.408 305.738 132.92 305.68C131.326 305.581 131.783 305.542 128.252 305.21C127.763 305.178 121.354 304.517 117.029 303.631C114.717 303.188 112.985 302.846 113.075 302.879C114.918 303.238 116.175 303.479 117.026 303.647C119.913 304.197 118.187 303.941 118.474 303.998C119.898 304.266 121.739 304.496 123.664 304.75C137.187 306.216 123.54 304.9 126.728 305.258C127.827 305.389 130.026 305.529 130.486 305.567C132 305.699 132.02 305.773 133.027 305.839C135.376 305.985 132.646 305.694 132.828 305.699C134.932 305.81 143.154 306.287 138.026 306.149C141.093 306.346 141.462 306.216 143.889 306.37C148.723 306.659 141.467 306.371 139.513 306.282C132.452 305.925 130.362 305.981 120.301 304.531C119.217 304.357 118.075 304.159 116.966 303.951C114.425 303.478 112.031 303.023 110.886 302.787C109.852 302.613 100.208 300.186 99.839 300.434C96.0783 299.486 90.2693 297.615 86.4594 296.375C83.0364 295.262 84.0844 295.732 83.7631 295.634C83.2671 295.488 79.1667 294.011 77.7885 293.478C76.1692 292.866 76.9502 293.242 74.4001 292.221C73.1217 291.701 72.1169 291.268 71.3163 290.913C68.1825 289.508 68.228 289.407 67.7248 289.171C60.4472 285.598 63.5815 287.274 61.9553 286.502C60.9608 286.037 51.643 281.262 44.4746 276.679C40.7282 274.326 37.4863 272.146 36.0743 271.178C37.7502 272.31 39.4413 273.403 41.1397 274.473C38.168 272.46 34.9505 270.362 34.9847 270.196C34.2227 270.016 28.3105 265.353 26.64 263.778C25.9653 263.185 25.9885 263.265 25.155 262.502C24.294 261.708 23.1641 260.621 21.9859 259.368C18.8445 256.05 15.0662 251.825 13.9375 250.521C9.11195 244.947 16.5816 254.01 21.8323 259.512C23.8632 261.694 25.6426 263.274 26.0623 263.656C25.2879 262.965 23.6186 261.462 21.8008 259.542C16.5058 254.072 9.30364 245.621 14.4435 251.737C15.5084 252.984 17.5324 255.055 18.154 255.722C22.3738 260.238 19.0027 256.744 19.3214 257.102C19.6427 257.462 20.7205 258.578 21.727 259.612C22.492 260.4 23.23 261.111 23.5643 261.444C23.8489 261.68 21.9818 260.186 26.5079 264.285C25.7373 263.648 23.786 261.953 21.6466 259.688C17.5616 255.419 12.3743 249.462 11.4486 248.304C11.0354 247.574 13.6263 252.049 5.21869 239.967C5.29788 240.122 5.3783 240.278 5.45992 240.433C3.31046 237.08 1.18851 233.452 0.474119 228.793C-0.121906 224.468 -0.131465 220.121 0.308369 215.848C0.242673 216.749 -0.0373802 221.386 0.441334 215.552C0.842722 212.211 0.449845 214.67 0.483603 214.364C0.614703 213.412 1.32504 207.071 4.35135 199.277C7.46107 190.069 14.687 177.885 22.8321 171.14C28.2135 166.244 32.7147 162.286 34.7858 160.453C37.288 158.231 44.2775 152.058 44.8236 151.595C46.2543 150.357 49.3144 147.727 52.5149 145.051C56.47 141.69 60.962 138.313 62.442 137.369C64.0739 136.279 62.4746 137.241 63.9478 136.292C65.3243 135.428 63.9374 136.384 64.347 136.13C65.5799 135.331 69.8646 132.83 75.0559 130.136C84.0416 125.427 95.8906 119.438 99.8019 117.492C96.0362 119.368 77.342 129.051 77.741 128.936C77.8295 128.895 82.4065 126.597 83.3357 126.095C84.9148 125.353 90.1686 122.469 93.0861 121.03C93.416 120.867 92.1714 121.615 97.3579 119.005C99.1467 118.104 103.779 115.668 108.507 113.356C109.571 112.805 111.367 111.886 113.603 110.731C117.363 108.768 122.373 106.237 127.383 103.202C139.249 97.5564 145.485 85.7339 145.897 84.2383C145.97 84.1978 143.461 88.8355 145.091 85.6707C147.082 81.3461 145.557 85.3628 147.676 80.1917C147.799 79.8671 148.695 77.4757 149.502 74.4796C150.813 69.6216 152.525 63.5637 152.617 63.2444C153.885 58.3926 149.875 72.2881 149.95 72.0879C150.026 71.5968 153.28 60.0314 153.471 59.5644C153.61 59.1206 150.949 68.5842 154.284 57.2485C153.866 58.5379 153.457 59.8322 153.057 61.1226C154.61 55.7866 154.911 55.3151 155.324 54.0299C156.662 50.0437 157.905 45.64 160.888 39.4315C161.692 37.7975 160.491 40.573 160.599 40.3684C161.179 39.1622 161.786 37.7146 162.586 36.1176C163.05 35.193 163.548 34.1826 164.125 33.1076C164.275 32.8585 161.015 39.6552 166.799 27.8924C166.359 28.7052 165.937 29.5176 165.528 30.3249C165.992 28.8876 171.616 18.8222 175.491 16.6593C175.842 16.3939 176.112 16.193 176.271 16.0753C180.567 13.0023 176.843 15.7237 181.241 12.7268C178.151 14.2956 192.285 6.09484 191.697 6.94254C193.186 6.11878 201.229 2.863 208.468 2.94365C210.58 2.92295 212.546 2.90478 214.091 2.89439C218.061 2.8201 226.267 2.96553 227.555 3.09631C229.115 3.20199 228.635 3.2514 231.452 3.50244C232.225 3.56768 240.33 4.18996 247.43 6.18998C247.59 6.23342 247.748 6.27681 247.906 6.32013C249.254 6.6894 252.062 7.58909 249.532 6.97635C248.88 6.81857 248.149 6.63547 247.367 6.4359C242.815 5.21637 236.641 4.27385 236.724 4.38386C236.806 4.45533 242.907 5.30708 247.348 6.50665C248.982 6.92701 250.398 7.29174 251.21 7.50644C264.861 11.1441 256.942 9.19284 257.284 9.31099C258.174 9.61823 265.643 11.6523 265.949 11.7644C267.229 12.1561 261.925 10.7394 261.834 10.7752C261.721 10.7962 268.876 12.9379 267.234 12.4996C264.897 11.8418 258.302 9.96058 257.886 9.86211C252.409 8.48303 259.856 10.596 261.894 11.2395C262.513 11.4314 260.013 10.7909 260.53 10.9386C268.4 13.2073 262.256 11.1745 267.498 12.6823C272.173 14.0707 266.123 12.4 266.302 12.4673C266.529 12.5246 272.121 14.1825 272.979 14.5096C273.419 14.5652 258.821 10.6158 259.4 10.9201C264.054 12.15 268.706 13.4284 273.318 14.8687C273.656 15.0702 267.027 12.9794 266.33 12.8166C264.935 12.4404 268.793 13.6087 268.612 13.5986C268.521 13.5902 263.956 12.36 268.048 13.5763C269.449 14.0087 272.445 14.7577 277.486 16.573C259.712 11.0209 271.995 14.9768 272.512 15.1545C273.007 15.3497 264.507 12.8051 274.795 16.0088C275.17 16.3679 274.56 15.9867 271.622 15.114C268.022 14.0988 276.316 16.5484 263.179 12.7244C263.911 12.9853 274.455 16.1055 274.992 16.365C275.468 16.5268 273.127 15.8195 273.951 16.1046C283.647 19.6069 276.979 17.2411 279.748 18.3517C280.023 18.372 288.982 22.1991 282.138 19.3534C269.493 14.6225 263.941 13.4287 261.704 13.0345C271.328 15.6866 282.794 19.515 285.498 20.9232C289.686 22.9008 285.328 20.8925 285.833 21.1604C286.031 21.221 289.584 23.0165 289.614 23.0833C292.249 24.1363 273.386 15.8594 266.928 14.5619C268.591 15.0799 270.255 15.6135 271.906 16.1655C269.649 15.4635 267.378 14.7982 265.103 14.1556C275.891 17.3862 265.491 14.2533 262.724 13.7183C262.102 13.589 269.251 15.5008 261.088 13.3621C267.078 15.0506 265.16 14.5373 270.57 16.0946C270.425 16.0663 258.214 12.7056 253.344 11.5264C270.376 16.2109 260.799 13.1106 275.31 17.7715C278.021 18.5683 271.111 16.3142 271.673 16.502C273.717 17.0956 278.471 18.6169 284.064 20.7908C284.966 21.1668 281.247 19.3549 286.807 21.9028C287.442 22.1642 290.794 24.1176 290.723 24.129C290.271 23.8767 286.901 22.0618 286.725 22.0437C286.601 21.9705 290.384 23.96 290.369 24.0176C290.453 24.1237 287.232 22.3173 287.689 22.6081C288.074 22.8205 290.259 24.0144 291.719 25.0561C293.381 26.2197 294.37 26.9345 291.667 25.1332C290.388 24.2872 288.157 22.9232 284.412 21.2655C299.107 28.9828 286.653 21.6062 280.385 19.5601C278.82 18.9804 278.413 18.8787 276.16 18.1207C273.258 17.1493 269.834 16.0879 268.31 15.6499C266.667 15.1955 275.953 17.9762 262.482 14.0868C269.334 16.0605 281.467 19.6212 287.538 22.9602C293.515 26.4284 291.43 25.2288 287.514 23.1356C283.553 21.0885 277.32 18.9143 276.141 18.5331C275.514 18.3216 277.588 19.1097 277.17 18.9705C276.54 18.6232 263.537 14.6563 262.202 14.4274C260.9 14.1195 267.002 15.7655 267.387 15.9545C267.673 16.0074 251.791 11.7805 260.374 14.1268C266.313 15.6823 277.097 18.9143 278.768 19.8131C270.361 16.773 261.63 14.4978 252.892 12.2161C257.658 13.5276 262.415 14.8584 267.12 16.2969C259.782 14.183 253.119 12.4549 246.263 10.6946C244.107 10.1429 241.91 9.68372 239.642 9.3114C242.86 9.90599 244.96 10.4604 246.234 10.8081C248.735 11.4966 248.156 11.3712 246.214 10.8835C242.286 9.71432 232.186 8.39915 231.98 8.48605C231.886 8.4091 240.711 9.75033 242.074 10.1843C234.45 8.07272 210.122 8.05938 224.303 8.51604C221.746 8.34823 215.492 8.45564 215.572 8.47406C216.393 8.4531 229.937 8.81778 227.715 8.8723C225.167 8.81201 221.591 8.56077 217.626 8.56416C213.819 8.56676 210.9 8.64499 208.546 8.70807C199.328 9.88097 199.508 9.33608 185.609 17.1374C185.951 16.9407 186.293 16.7483 186.638 16.5571C184.104 18.103 181.642 19.8088 179.246 21.6187C174.211 25.3574 171.603 32.147 168.152 38.9734C163.05 49.1218 159.875 60.603 156.665 71.9633C156.367 73.1153 155.998 74.5288 155.576 76.14C154.19 81.4526 151.599 88.8804 146.888 95.2279C142.292 101.675 135.475 106.065 131.206 108.492C131.064 108.575 130.885 108.68 130.676 108.801C127.937 110.552 119.043 115.174 118.343 115.505C116.935 116.222 124.662 112.135 121.147 113.938C120.9 114.065 118.98 115.075 116.508 116.349C111.301 119.033 103.687 122.887 104.548 122.515C106.461 121.557 112.455 118.458 113.437 117.973C118.318 115.636 93.9679 127.864 78.1557 136.061C71.2654 139.586 66.4999 142.634 65.8364 143.161C66.8788 142.48 67.9385 141.833 69.0261 141.205C65.9577 143.034 63.1336 145.097 60.28 147.397ZM167.232 26.3993C168.209 24.291 171.742 19.0602 174.929 16.7314C175.054 16.6314 175.183 16.5301 175.316 16.428C179.007 13.4596 185.333 9.3119 182.603 11.3507C180.081 12.9372 177.659 14.6458 175.318 16.4312C171.71 19.1718 169.185 22.8346 167.232 26.3993ZM120.579 106.807C124.492 104.713 121.587 106.537 118.304 108.19C117.938 108.37 115.231 109.597 120.579 106.807ZM149.223 74.7728C149.195 74.9698 148.098 78.4953 148.024 78.6211C147.193 80.8624 148.879 76.0076 149.279 74.4187C149.438 73.8676 149.489 73.7264 149.312 74.4275C149.287 74.5257 149.257 74.6406 149.223 74.7728ZM1.53129 232.488C0.0317273 226.78 0.677373 231.169 2.14683 234.349C2.23121 234.558 1.63872 232.853 1.53129 232.488ZM0.57733 228.436C0.0502734 224.322 0.123101 216.084 0.0442173 222.643C-0.0170202 223.281 0.531479 228.629 0.57733 228.436ZM133.967 98.804C133.657 99.1619 129.996 101.551 128.257 102.512C128.311 102.439 132.574 99.9192 133.967 98.804ZM34.1738 161.086C34.0412 161.233 46.246 150.576 47.0711 149.829C45.1257 151.5 34.2773 160.921 34.1738 161.086ZM6.85452 193.502C6.9779 193.107 9.52536 187.856 9.46465 188.004C8.01476 190.505 6.06549 195.238 6.85452 193.502ZM30.9688 267.919C31.2458 268.056 27.8794 265.436 36.0234 271.482C37.2259 272.358 32.8471 269.35 33.2783 269.65C34.1656 270.317 34.8778 270.83 35.4517 271.233C31.5585 268.575 27.7086 265.407 27.3611 265.07C25.6691 263.572 30.8292 267.887 30.9688 267.919ZM68.8797 290.016C69.2029 290.148 70.128 290.563 71.2523 291.058C73.2649 291.95 75.9187 293.041 76.7568 293.378C76.9821 293.466 75.9564 293.191 78.5641 294.185C80.6659 294.962 77.5612 293.711 81.6532 295.218C85.8047 296.691 80.2231 294.818 80.5886 294.94C81.0609 295.159 87.5338 297.281 87.3208 297.247C87.1476 297.277 80.2389 294.914 78.5591 294.235C76.396 293.413 78.9791 294.515 75.3867 293.069C73.1393 292.138 74.4385 292.522 73.9673 292.32C73.8144 292.254 72.5299 291.729 71.2106 291.152C69.1513 290.254 67.0123 289.249 68.8914 290.022C68.8875 290.02 68.8836 290.018 68.8797 290.016ZM36.5033 271.955C36.2079 271.757 35.8653 271.523 35.4517 271.233C35.8048 271.478 36.1543 271.717 36.5033 271.955ZM161.391 38.2725C160.805 39.4889 161.433 37.9958 162.425 36.0347C163.154 34.599 164.017 32.7838 164.552 31.7284C164.584 31.7145 163.406 34.2533 162.48 36.0628C161.899 37.198 161.452 38.1495 161.391 38.2725ZM40.1812 274.284C46.003 278.051 41.6536 275.427 36.5033 271.955C38.1461 273.045 38.236 272.992 40.1812 274.284ZM83.3357 126.095C83.0754 126.217 82.9036 126.287 82.8708 126.275C83.5611 125.953 83.6271 125.937 83.3357 126.095ZM69.055 133.54C64.1977 136.346 74.1343 130.822 74.0476 130.871C74.0113 130.855 69.2469 133.408 69.055 133.54ZM4.59078 238.815C4.37948 238.303 8.68269 245.5 2.58323 234.93C5.57507 240.813 2.32032 234.678 2.40417 234.717C2.21761 235.266 8.05308 244.35 9.61464 245.995C10.7916 247.388 5.38514 240.476 4.59788 238.827C4.59551 238.823 4.59315 238.819 4.59078 238.815ZM145.658 307.019C144.276 307.035 139.888 306.843 136.928 306.669C138.317 306.69 142.692 306.915 145.658 307.019ZM499.323 36.6993C514.585 50.1136 516.229 52.1713 502.548 39.6406C502.279 39.3886 498.376 35.9105 499.323 36.6993ZM593.936 179.599C594.182 181.129 593.356 177.432 592.442 173.836C592.217 172.939 591.989 172.044 591.782 171.236C591.55 170.319 590.732 166.921 591.805 170.764C591.726 170.722 592.049 172.077 592.48 173.826C592.948 175.718 593.53 178.072 593.936 179.599ZM43.517 276.344C43.7445 276.477 44.031 276.649 44.3652 276.853C46.5943 278.23 50.9568 280.853 53.455 282.234C51.8476 281.422 47.0572 278.632 44.3491 276.878C44.0432 276.683 43.7639 276.504 43.517 276.344ZM546.821 83.4079C548.243 85.0259 549.255 86.0678 549.021 85.7805C547.971 84.4884 545.234 81.5415 546.821 83.4079ZM27.0575 264.529C26.823 264.382 33.4343 269.544 33.8789 269.9C32.4112 268.906 27.1688 264.737 27.0575 264.529ZM140.078 306.758C138.807 306.682 145.392 306.928 147.378 307.004C147.209 307.053 140.914 306.822 140.078 306.758ZM567.089 111.517C568.102 113.143 570.576 117.26 570.872 117.705C571.265 118.239 567.617 112.212 567.089 111.517ZM252.861 9.01231C252.746 9.00323 254.409 8.97297 256.521 8.92457C258.769 8.8742 261.531 8.81081 263.205 8.79855C267.493 8.76247 261.011 8.93604 256.522 8.98896C254.535 9.01519 252.941 9.0159 252.861 9.01231ZM532.915 68.6732C528.742 64.3096 533.383 69.1397 533.268 68.89C530.441 65.9721 523.261 58.8783 528.124 63.8307C529.069 64.7945 531.596 67.3164 532.915 68.6732ZM536.771 72.6914C536.844 72.7605 536.98 72.893 537.147 73.0563C538.066 73.9572 539.906 75.7927 537.715 73.4999C537.56 73.3383 537.391 73.1642 537.218 72.9883C536.064 71.8192 534.775 70.6062 536.771 72.6914ZM297.578 6.39611C300.389 5.68935 294.891 7.32117 290.312 8.00681C284.822 8.2907 278.736 8.49609 278.384 8.49905C278.009 8.50435 277.771 8.50503 277.63 8.50353C276.729 8.56555 272.092 8.71028 271.552 8.65249C272.941 8.62367 276.744 8.49861 277.177 8.48951C277.37 8.48623 277.512 8.48439 277.61 8.48413C278.543 8.42102 284.879 8.19526 290.308 7.9246C293.334 7.56256 297.261 6.42623 297.578 6.39611ZM338.476 0.114462C332.23 0.474963 331.078 0.48153 331.624 0.402521C338.47 -0.16064 334.012 0.309077 334.222 0.293526C334.705 0.255281 339.538 -0.00858355 338.456 0.11512C338.463 0.114901 338.469 0.114681 338.476 0.114462ZM305.802 4.49173C305.546 4.53757 300.465 5.71392 300.26 5.77047C296.076 6.66734 310.48 3.35912 305.802 4.49173ZM100.263 300.565C103.895 301.46 100.306 300.696 97.9002 300.048C97.7033 299.991 97.0621 299.752 100.263 300.565ZM538.837 74.8265C539.535 75.3098 554.194 91.9853 553.26 91.0818C552.313 89.303 535.278 70.789 538.837 74.8265ZM598.087 225.505C598.042 221.614 598.211 225.853 598.176 227.931C598.164 228.701 598.097 226.483 598.087 225.505ZM19.1006 256.493C16.3125 253.547 17.0341 254.033 19.3579 256.661C19.4495 256.764 19.2098 256.608 19.1006 256.493ZM596.419 194.323C597.765 207.818 597.657 204.613 595.174 187.132C595.284 187.673 595.392 188.217 595.497 188.759C591.615 168.748 595.53 187.333 596.077 192.312C596.339 194.191 596.19 192.607 596.418 194.31C596.418 194.314 596.419 194.319 596.419 194.323ZM597.889 245.957C597.235 258.862 598.197 234.217 597.971 227.143C598.118 233.999 597.989 242.927 598.178 230.786C598.061 248.539 597.963 241.146 597.974 241.855C597.949 242.692 597.917 245.407 597.889 245.957ZM597.74 211.863C597.713 211.116 597.467 205.469 597.285 203.428C597.504 205.336 597.787 210.681 597.819 212.539C597.837 213.301 597.828 213.466 597.776 212.541C597.766 212.357 597.754 212.132 597.74 211.863ZM381.578 1.23869C381.109 1.27516 379.949 1.22495 375.522 0.915962C376.891 0.966208 379.724 1.12843 381.578 1.23869ZM169.94 22.7055C171.283 20.6044 174.546 17.4121 175.558 16.7479C175.811 16.5475 175.84 16.5121 175.538 16.7214C175.511 16.7402 175.482 16.7607 175.45 16.7831C175.354 16.8453 173.702 18.1226 172.363 19.6175C171 21.0948 169.927 22.6933 169.94 22.7055ZM575.98 127.303C576.521 127.758 583.177 143.567 580.965 138.071C580.55 136.277 573.595 122.371 575.98 127.303ZM522.6 58.493C523.612 59.4688 527.688 63.4714 527.782 63.5501C528.101 63.7768 523.083 58.8755 522.6 58.493ZM182.362 12.0962C182.626 11.7572 191.134 7.15239 190.227 7.69331C188.278 8.38444 181.111 12.7897 182.362 12.0962ZM113.549 303.337C114.316 303.489 115.313 303.763 115.578 303.816C115.686 303.838 116.197 303.938 116.941 304.083C120.551 304.895 129.642 305.862 125.072 305.425C124.711 305.384 121.166 304.992 116.927 304.15C110.67 302.945 102.753 301.147 101.185 300.738C100.195 300.421 108.772 302.494 110.873 302.885C111.243 302.959 111.496 302.928 113.543 303.336C113.545 303.336 113.547 303.337 113.549 303.337ZM358.458 0.122125C357.831 0.0798652 340.989 0.0719998 341.184 0.0843315C346.943 -0.0451946 352.709 -0.0200055 358.458 0.122125ZM366.996 0.441905C370.589 0.652018 362.18 0.278954 359.706 0.208254C359.684 0.152141 366.475 0.398489 366.996 0.441905ZM544.646 81.5027C545.797 82.7443 542.362 78.8338 543.157 79.6812C543.672 80.216 546.193 83.0531 547.01 83.9459C547.248 84.1943 544.736 81.2426 543.975 80.4265C542.906 79.2669 543.888 80.4394 542.72 79.17C540.757 77.0446 538.911 75.0758 537.068 73.1317C535.25 71.216 533.443 69.3436 531.564 67.4424C531.225 67.0991 533.827 69.8059 530.924 66.8645C530.474 66.411 527.828 63.6315 524.287 60.1791C516.304 52.7283 510.687 47.0151 500.185 37.9146C500.591 38.253 508.29 45.2141 508.719 45.6466C516.189 52.4859 528.483 64.3689 536.944 73.2499C538.173 74.5335 539.324 75.7479 540.372 76.8655C542.505 79.1466 541.496 77.9978 542.419 78.989C543.136 79.7689 542.228 78.8959 544.646 81.5027ZM169.011 24.188C169.793 23.0287 172.574 19.0019 175.612 16.8199C175.846 16.6426 176.074 16.4709 176.295 16.3071C176.139 16.4076 175.897 16.5768 175.595 16.7975C173.684 18.0534 170.469 21.7309 169.011 24.188ZM441.908 7.96617C442.023 7.98214 442.154 8.00065 442.299 8.02119C444.234 8.2874 448.58 8.97672 448.982 9.02725C449.45 9.05956 443.897 8.17864 442.302 8.00335C442.09 7.97846 441.95 7.96474 441.908 7.96617ZM193.877 308.051C194.031 308.053 197.927 308.259 198.072 308.273C201.548 308.525 189.868 307.91 193.877 308.051ZM285.138 324.339C287.975 325.198 290.836 326.062 291.768 326.428C289.967 325.852 284.79 324.282 285.138 324.339ZM410.257 357.675C409.655 357.475 418.489 359.239 420.162 359.512C419.526 359.469 410.682 357.851 410.257 357.675ZM382.199 1.58208C376.727 1.17675 377.867 1.40798 374.395 1.12287C373.827 1.08216 372.006 0.654902 378.029 1.15889C379.111 1.25737 374.866 1.01851 382.199 1.58208ZM594.656 184.301C594.339 182.921 593.436 178.595 592.714 175.712C592.938 176.339 594.279 182.205 594.656 184.301ZM198.252 4.75106C199.848 4.27678 205.185 3.16467 208.471 3.19969C210.358 3.15841 211.434 3.12162 210.299 3.11371C210.191 3.11313 209.484 3.12417 208.47 3.14145C205.261 3.06565 199.479 4.31542 198.252 4.75106ZM55.8239 283.219C60.2026 285.493 51.2046 280.655 48.4234 279.001C49.6688 279.773 55.5178 283.086 55.8239 283.219ZM379.852 350.89C380.085 350.945 385.123 352.138 385.347 352.19C389.464 353.234 375.205 349.855 379.852 350.89ZM255.659 315.998C257.479 316.317 269.224 319.456 271.822 320.307C269.292 319.575 253.428 315.468 255.659 315.998ZM404.676 3.58971C400.788 3.18974 397.097 2.8102 393.521 2.4563C394.28 2.46392 404.272 3.49986 404.676 3.58971ZM398.395 355.126C398.588 355.169 398.776 355.213 398.961 355.255C399.036 355.272 399.112 355.289 399.187 355.306C399.111 355.289 399.036 355.272 398.961 355.255C398.77 355.212 398.581 355.169 398.395 355.126ZM488.15 28.165C490.765 30.2045 490.26 29.7197 490.105 29.5893C488.171 28.0283 485.165 25.8827 488.15 28.165ZM171.484 20.9623C171.984 20.4239 173.561 18.5307 175.692 16.9254C177 15.928 178.394 14.9188 179.489 14.1744C179.066 14.4248 177.396 15.5737 175.664 16.8877C173.895 18.2056 172.317 19.9229 171.484 20.9623ZM597.139 259.784C596.853 263.904 597.605 247.111 597.657 243.582C597.772 243.32 597.26 259.181 597.139 259.784ZM42.6809 275.334C42.4265 275.13 36.4642 271.264 37.7074 272.119C38.4832 272.689 42.8243 275.484 42.6809 275.334ZM597.827 235.144C597.825 233.567 597.89 229.892 597.926 231.186C597.974 232.849 597.83 235.551 597.827 235.144ZM559.658 100.67C560.031 101.244 565.081 109.005 563.072 105.75C561.677 103.491 561.37 103.186 561.033 102.664C560.939 102.517 560.385 101.647 559.699 100.575C557.57 97.2813 554.128 92.2817 559.627 100.621C559.638 100.637 559.648 100.654 559.658 100.67ZM560.102 345.317C562.896 343.014 566.056 339.979 568.537 337.149C567.653 338.406 561.425 344.485 560.102 345.317ZM66.645 288.541C65.7619 288.386 45.2652 277.287 56.8696 283.669C57.506 284.118 68.9395 289.769 66.645 288.541ZM382.199 1.58208C382.484 1.60385 382.788 1.62767 383.113 1.65387C383.568 1.69059 384.066 1.73201 384.611 1.77903C384.068 1.73437 383.57 1.69338 383.113 1.65602C382.788 1.62956 382.484 1.60492 382.199 1.58208ZM444.078 8.4329C442.818 8.29052 449.128 9.23115 451.011 9.56707C451.588 9.58017 444.248 8.42771 444.078 8.4329ZM568.679 336.892C569.896 335.486 571.904 333.055 573.416 331.011C573.668 330.673 573.916 330.329 574.134 330.021C574.083 330.108 573.821 330.494 573.434 331.025C572.143 332.847 569.206 336.383 568.679 336.892ZM426.762 360.405C430.911 361.085 436.049 361.709 436.136 361.663C436.222 361.681 436.423 361.714 436.758 361.763C437.096 361.819 441.575 362.298 443.521 362.492C455.087 364.384 398.741 356.223 431.386 360.988C429.84 360.805 428.304 360.612 426.762 360.405ZM239.622 312.518C238.444 312.274 236.153 311.89 234.428 311.639C232.809 311.402 231.691 311.267 232.509 311.399C232.8 311.447 233.528 311.559 234.419 311.7C237.129 312.119 241.35 312.876 239.622 312.518ZM327.034 336.849C326.354 336.648 320.116 334.876 319.945 334.855C323.512 335.951 330.125 337.787 327.034 336.849ZM221.787 309.898C220.322 309.724 218.44 309.633 218.612 309.656C220.1 309.838 224.241 310.232 221.787 309.898ZM393.501 2.80849C395.706 3.03281 402.741 3.65399 404.277 3.75156C404.56 3.79385 405.326 3.88962 406.729 4.05789C406.725 4.05744 406.72 4.05699 406.716 4.05653C408.637 4.00235 465.249 11.3947 427.285 6.33632C426.093 6.18712 427.717 6.44017 422.872 5.84684C422.548 5.80746 422.401 5.7404 421.412 5.62114C419.139 5.3312 407.021 3.95291 404.575 3.75659C404.555 3.74542 404.398 3.72048 404.064 3.67804C401.082 3.28601 391.791 2.62215 393.501 2.80849ZM339.418 340.31C338.163 339.95 334.179 338.862 333.755 338.787C335.721 339.365 342.327 341.151 339.418 340.31ZM66.0681 288.071C63.6474 286.913 57.5781 283.854 59.3883 284.825C60.4741 285.47 68.8381 289.451 66.0681 288.071ZM299.735 328.615C314.253 333.195 303.203 329.694 305.448 330.328C303.541 329.759 301.635 329.187 299.735 328.615ZM322.685 1.91309C325.106 1.58433 322.272 2.10959 319.628 2.42865C318.797 2.5281 321.331 2.09904 322.685 1.91309ZM214.652 6.51852C216.749 6.78433 206.435 5.87067 210.457 6.1055C210.638 6.09701 214.5 6.47359 214.652 6.51852ZM290.499 8.46367C291.751 8.24788 292.834 8.00984 297.304 6.92991C290.762 8.48908 296.588 7.35941 290.499 8.46367ZM436.092 361.649C436.118 361.655 436.14 361.66 436.136 361.663C436.106 361.656 436.094 361.652 436.092 361.649ZM207.633 308.614C205.747 308.4 200.449 308.069 202.023 308.234C202.173 308.244 206.855 308.596 207.633 308.614ZM404.277 3.75156C404.026 3.71413 404.155 3.71996 404.575 3.75659C404.593 3.76711 404.484 3.76391 404.277 3.75156ZM235.897 311.777C235.703 311.765 243.624 313.19 243.938 313.277C248.484 314.09 239.183 312.258 235.897 311.777ZM21.0138 257.741C20.8336 257.553 21.4442 258.279 22.2246 259.143C22.7129 259.683 23.2753 260.265 23.75 260.708C24.4285 261.333 23.347 260.248 22.2788 259.091C21.8144 258.59 21.3536 258.096 21.0138 257.741ZM274.902 9.13936C272.344 9.22048 268.724 9.30821 268.061 9.26336C269.783 9.2385 274.957 9.09796 274.902 9.13936ZM218.7 7.193C219.234 7.27613 219.879 7.38822 220.613 7.53422C223.767 8.17373 229.113 8.65093 232.731 8.88596C232.817 8.97205 224.503 8.42977 220.608 7.55796C219.809 7.39059 219.151 7.26997 218.7 7.193ZM386.532 2.16464C386.742 2.17849 393.186 2.77119 392.312 2.63597C391.038 2.42368 384.713 1.97848 386.532 2.16464ZM30.4208 266.534C32.7747 268.316 27.472 264.073 25.1469 261.932C23.8898 260.919 29.9703 266.312 30.4208 266.534ZM191.075 307.565C187.28 307.432 196.672 307.913 197.982 307.941C196.244 307.836 192.417 307.609 191.075 307.565ZM316.787 333.676C316.339 333.535 315.919 333.402 315.525 333.278C305.81 330.183 311.581 332.258 313.551 332.828C313.702 332.872 314.661 333.129 315.503 333.35C316.26 333.549 316.92 333.718 316.787 333.676ZM228.767 3.80364C230.494 3.87427 224.068 3.41752 223.238 3.49044C222.724 3.50093 227.662 3.72344 228.767 3.80364ZM494.642 364.653C494.137 364.65 493.636 364.646 493.132 364.641C493.51 364.642 494.002 364.646 494.642 364.653ZM156.589 306.387C165.027 306.826 164.157 306.602 164.883 306.619C166.468 306.654 170.146 306.798 173.129 306.858C169.711 306.806 166.29 306.767 162.871 306.727C165.581 306.759 189.008 307.478 189.489 307.533C190.2 307.496 182.835 307.238 182.615 307.234C182.303 307.216 181.17 307.014 180.478 306.987C179.363 306.905 159.744 306.497 156.589 306.387ZM292.79 326.284C294.622 326.877 295.127 327.105 295.985 327.357C296.278 327.443 296.343 327.398 297.345 327.695C295.823 327.223 294.307 326.753 292.79 326.284ZM141.422 306.139C139.025 305.974 149.778 306.415 150.12 306.412C151.95 306.523 143.393 306.305 141.422 306.139ZM231.932 311.11C231.557 311.021 223.46 309.947 223.516 310.021C225.668 310.25 236.465 311.825 231.932 311.11ZM298.573 328.075C301.329 328.948 306.538 330.635 305.965 330.357C305.961 330.356 305.957 330.354 305.953 330.353C303.49 329.597 301.032 328.837 298.573 328.075ZM38.6876 272.252C34.2919 269.059 36.2864 270.713 40.2609 273.402C41.5129 274.141 39.4107 272.772 38.6876 272.252ZM24.9533 261.42C24.6693 261.139 23.6788 260.2 22.4664 258.915C19.0902 255.393 13.7395 249.373 14.8606 250.722C15.3667 251.409 21.4322 257.924 21.7222 258.203C22.0861 258.6 20.6199 257.139 22.3684 259.007C22.6406 259.297 22.9916 259.663 23.444 260.116C23.2568 259.903 25.3242 261.798 24.9533 261.42ZM35.0416 269.619C30.725 266.351 29.6684 265.704 32.9135 268.19C34.193 269.145 35.6615 270.078 35.0416 269.619ZM53.6315 281.341C52.0101 280.427 47.8321 277.987 44.8128 276.141C44.6921 276.068 44.5732 275.996 44.4564 275.926C44.5736 276 44.6909 276.074 44.8085 276.148C48.7229 278.617 52.7257 280.926 56.7912 283.111C57.293 283.335 55.1002 282.184 53.6201 281.335C53.6239 281.337 53.6277 281.339 53.6315 281.341ZM187.364 2.07593C189.841 2.63127 187.635 2.10598 185.16 1.79706L185.225 1.80655C183.782 1.515 181.651 1.02918 181.515 1.02566C180.542 0.801504 183.424 1.32912 185.237 1.73425L185.169 1.72436C186.03 1.8302 186.831 1.96858 187.364 2.07593ZM261.054 12.2382C262.181 12.571 262.904 12.8445 265.407 13.5085C262.917 12.7427 260.419 12.0042 257.917 11.2784C255.924 10.8862 259.822 11.8723 261.054 12.2382ZM270.481 15.4361C270.129 15.3381 271.99 16.0916 267.482 14.6183C264.438 13.5594 281.18 18.5645 283.945 20.1702C280.751 18.7835 273.528 16.2969 270.481 15.4361ZM297.419 29.1526C297.567 29.2628 292.671 25.9211 291.609 25.2213C291.554 25.1844 291.51 25.1549 291.479 25.1335C290.272 24.3322 290.658 24.5447 291.642 25.1719C293.373 26.2893 296.891 28.7117 297.419 29.1526ZM279.124 19.1938C282.001 20.2971 275.583 17.9543 273.63 17.3496C273.459 17.2337 278.687 18.9957 279.124 19.1938ZM228.92 12.1612C232.286 12.5739 235.322 12.4559 230.128 12.1589C229.882 12.1438 228.775 12.1428 228.92 12.1612ZM291.969 25.6736C291.773 25.538 291.622 25.434 291.516 25.3597C291.246 25.1708 291.286 25.1891 291.528 25.3422C292.387 25.8839 295.61 28.0659 296.794 28.9164C296.929 29.045 292.368 25.9328 291.969 25.6736ZM231.273 12.6738C235.758 13.0667 234.193 12.6185 233.635 12.5778C231.336 12.4372 223.406 11.8438 221.756 11.5186C233.662 12.9544 229.152 12.3868 231.273 12.6738ZM251.969 13.1409C256.126 13.1205 245.501 13.0126 243.471 13.0152C245.537 13.0728 250.786 13.1565 251.969 13.1409ZM277.174 12.7989C279.401 12.7446 286.049 12.4975 287.159 12.3845C284.722 12.5183 278.122 12.7194 277.174 12.7989ZM282.236 12.7697C285.719 12.6966 286.562 12.4501 282.532 12.6829C282.38 12.6915 282.109 12.7709 282.236 12.7697ZM301.842 10.0028C304.074 9.55202 306.553 8.77824 302.968 9.60659C301.901 9.85813 301.604 10.0505 301.842 10.0028ZM236.877 13.3562C240.166 13.5372 244.411 13.5348 237.386 13.2542C239.856 13.3409 242.32 13.3956 244.787 13.4259C235.599 13.104 236.258 13.2415 233.617 13.1058C229.921 12.8633 230.222 12.6949 230.973 12.7034C229.323 12.6129 224.838 12.4211 219.791 11.4447C215.779 10.5922 211.355 10.2306 207.979 10.064C211.3 10.2628 215.612 10.6299 219.769 11.5491C223.992 12.4219 228.079 12.7355 231.212 12.9865C233.053 13.1245 234.844 13.1785 236.413 13.2584C238.928 13.3812 236.693 13.3457 236.864 13.3556C236.869 13.3558 236.873 13.356 236.877 13.3562ZM326.994 5.44347C333.591 4.79438 329.409 5.00646 325.683 5.54235C325.522 5.566 326.832 5.46045 326.994 5.44347ZM298.94 31.2155C294.033 27.7233 294.873 28.2216 291.233 25.7844C289.535 24.6687 286.667 22.9699 280.997 20.7973C288.175 23.6571 281.435 20.8589 282.845 21.4002C283.999 21.7984 288.047 23.7823 285.718 22.5815C286.757 23.1062 289.005 24.1951 291.276 25.7196C295.965 28.8367 301.373 32.813 302.137 33.0959C302.129 33.092 302.122 33.0882 302.114 33.0843C302.586 33.3405 301.214 32.8797 298.94 31.2155ZM277.223 13.3273C279.484 13.4942 280.347 13.0804 284.769 13.0951C290.633 12.5801 268.526 13.7185 265.853 13.4397C289.858 12.8979 249.986 13.5264 266.752 13.5479C252.94 13.6471 262.226 13.6706 260.095 13.7547C259.354 13.781 258.02 13.8024 256.565 13.8181C253.577 13.8541 250.114 13.8248 250.382 13.8877C250.386 13.8877 250.39 13.8878 250.395 13.8878C252.452 13.8985 254.509 13.8934 256.565 13.8724C259.296 13.8443 262.026 13.8033 264.746 13.7493C260.072 13.6356 269.833 13.5242 273.148 13.5746C274.512 13.4954 275.866 13.4132 277.223 13.3273ZM250.17 13.5837C250.432 13.5895 253.77 13.6015 256.563 13.5593C258.792 13.5285 260.673 13.4862 260.377 13.4728C259.963 13.4709 258.418 13.4888 256.562 13.5067C252.106 13.5602 245.961 13.4987 250.17 13.5837ZM204.651 10.0036C208.42 10.1782 214.017 10.6127 215.975 10.8846C212.4 10.3205 206.714 10.0545 204.651 10.0036ZM395.251 7.07313C399.974 7.44654 385.451 6.10114 389.647 6.55559C389.857 6.57322 395.021 7.05045 395.251 7.07313ZM288.034 12.8477C289.394 12.8026 290.187 12.758 290.535 12.7272C290.963 12.6868 290.915 12.6666 290.532 12.6675C290.01 12.6532 288.635 12.6901 287.004 12.7951C286.795 12.8087 287.824 12.8547 288.034 12.8477ZM292.959 27.1174C292.884 27.0847 292.189 26.6222 291.138 25.9259C288.166 23.7886 281.036 20.8185 279.409 20.2671C280.341 20.5189 288.067 23.591 291.172 25.8754C292.328 26.6545 293.041 27.1533 292.959 27.1174ZM197.889 9.50816C205.727 10.8339 215.365 10.7205 216.424 11.181C217.473 11.3488 215.812 11.1857 216.051 11.2264C216.248 11.2586 217.79 11.4742 219.701 11.8761C223.474 12.6669 228.473 13.0285 228.844 13.0647C229.255 13.0943 227.128 12.7853 229.564 12.9481C227.869 12.8187 224.088 12.5976 219.73 11.7349C212.515 10.1633 203.38 10.213 202.609 10.0169C201.708 9.88664 208.401 10.8473 197.902 9.51062C197.898 9.5098 197.893 9.50898 197.889 9.50816ZM219.048 11.6684C217.946 11.4361 218.523 11.5214 219.725 11.762C221.706 12.1875 225.182 12.6035 226.386 12.731C230.213 13.1355 222.288 12.4459 219.715 11.8066C219.339 11.7271 219.097 11.679 219.048 11.6684ZM238.906 13.6465C239.85 13.7233 248.322 13.9272 249.043 13.8501C245.035 13.762 236.778 13.5433 238.906 13.6465ZM332.192 5.3094C334.327 5.08678 340.273 4.92706 340.616 4.88336C338.435 4.90775 332.517 5.19509 332.192 5.3094ZM251.894 12.5794C254.909 13.4043 249.293 11.9601 246.148 11.1383C245.655 11.0089 245.225 10.9005 244.903 10.8197C244.87 10.8018 245.389 10.9163 246.156 11.1085C248.127 11.6029 251.68 12.5201 251.894 12.5794ZM288.884 13.3113C289.042 13.3059 289.657 13.2755 290.558 13.232C297.592 12.0894 316.559 7.25357 319.91 7.15982C316.56 7.17974 296.922 12.1575 290.555 13.1507C289.894 13.1841 289.431 13.2098 289.305 13.2181C288.949 13.2417 288.72 13.3169 288.884 13.3113ZM231.434 13.6154C228.984 13.5237 227.385 13.2709 227.072 13.2401C224.975 13.0436 221.308 12.5703 219.639 12.1713C218.967 12.0218 218.687 11.9559 219.087 12.0107C219.266 12.0475 219.453 12.0867 219.648 12.1284C225.394 13.3799 236.125 13.7259 231.434 13.6154ZM334.055 5.52496C342.852 4.95205 325.969 6.00929 328.199 6.03631C328.344 6.00001 333.144 5.55663 334.055 5.52496ZM285.921 13.4748C284.244 13.6559 265.059 14.2672 256.569 14.2654C255.008 14.2774 253.806 14.2776 253.144 14.2779C254.328 14.2416 255.445 14.2199 256.568 14.2043C259.071 14.1689 261.635 14.1789 265.168 14.1085C266.554 14.08 266.177 14.0386 266.326 14.0357C268.73 13.9828 266.923 14.0771 268.409 14.045C269.341 14.0832 288.704 13.3054 285.921 13.4748ZM230.033 13.567C229.248 13.5076 224.377 13.2579 219.609 12.3095C215.67 11.4744 211.839 11.2034 211.529 11.1658C208.875 10.9567 214.259 11.1089 219.622 12.249C224.541 13.2298 229.439 13.4892 230.033 13.567ZM288.361 13.4628C285.518 13.7648 272.334 14.146 281.351 13.7481C282.208 13.7102 285.861 13.6173 288.361 13.4628ZM333.129 5.71776C333.441 5.67487 338.551 5.41169 341.289 5.37145C342.242 5.3484 342.906 5.33229 342.945 5.32045C342.711 5.32123 342.098 5.32804 341.289 5.34231C337.42 5.3318 329.082 5.9937 333.129 5.71776ZM328.423 6.3145C328.642 6.29594 326.5 6.42957 330.767 5.99007C331.129 5.97749 331.77 5.90869 337.182 5.61931C338.277 5.56417 339.994 5.45552 339.865 5.45575C334.161 5.13115 317.38 7.83923 328.423 6.3145ZM229.722 13.6182C230.622 13.7255 228.435 13.6849 226.475 13.4243C225.63 13.3078 227.215 13.4219 229.722 13.6182ZM362.525 5.59832C357.116 5.44373 374.091 6.17172 374.952 6.28162C374.409 6.1715 363.073 5.57678 362.525 5.59832ZM243.591 11.0299C243.595 11.0309 243.6 11.0318 243.604 11.0327C239.274 10.0965 241.968 10.6123 241.767 10.5619C232.466 8.82531 234.879 9.56689 233.417 9.34418C230.241 9.06908 230.776 8.89829 225.367 8.68654C234.296 9.10771 226.177 8.64555 225.922 8.5965C224.948 8.21739 237.796 9.48837 242.059 10.5677C242.668 10.6637 238.218 9.76244 239.771 10.0257C241.32 10.2738 243.835 10.8042 246.074 11.4267C250.913 12.7558 254.675 13.8794 246.022 11.6253C245.305 11.4385 244.498 11.238 243.591 11.0299ZM224.951 13.2693C224.252 13.2035 222.114 12.9921 219.576 12.4692C214.789 11.401 208.411 11.0763 211.242 11.2182C211.591 11.2375 215.967 11.5739 219.596 12.3738C223.408 13.1395 226.489 13.3664 224.951 13.2693ZM438.154 356.679C441.967 357.064 433.154 355.963 431.521 355.742C430.708 355.66 436.475 356.528 438.154 356.679ZM376.847 344.36C372.38 343.292 367.627 342.366 373.181 343.696C373.771 343.838 377.348 344.517 376.847 344.36ZM592.36 238.999C592.187 243.776 592.352 243.495 592.418 239.987C592.438 238.747 592.365 238.849 592.36 238.999ZM493.606 359.41C493.127 359.404 487.592 359.337 487.792 359.374C489.837 359.44 496.703 359.479 493.606 359.41ZM592.358 237.481C592.347 240.316 592.545 235.438 592.432 231.974C592.44 233.733 592.36 237.19 592.358 237.481ZM298.66 12.0699C300.963 11.4233 307.46 9.88341 311.21 9.15261C311.624 9.10102 301.347 11.3347 298.66 12.0699ZM395.792 348.875C391.549 347.991 400.617 350.063 399.797 349.791C399.687 349.765 395.967 348.913 395.792 348.875ZM549.323 95.4523C551.295 97.8455 545.197 90.1096 546.822 92.2842C546.911 92.3798 549.228 95.3138 549.323 95.4523ZM519.725 63.6083C521.439 65.2757 528.645 72.4937 525.876 69.6453C525.455 69.1938 519.893 63.6905 519.725 63.6083ZM233.149 9.37885C234.399 9.56421 227.104 8.90166 226.04 8.89427C225.629 8.84542 231.532 9.04488 233.149 9.37885ZM590.811 269.915C590.618 272.364 589.73 278.608 589.546 279.687C590.109 276.797 591.007 269.123 590.811 269.915ZM415.144 352.924C411.455 352.13 405.149 350.821 406.679 351.27C413.665 352.687 405.836 351.018 415.144 352.924ZM592.218 221.561C592.246 223.541 592.383 225.058 592.387 224.835C592.421 222.685 592.228 219.595 592.218 221.561ZM542.062 350.111C541.933 350.128 536.201 352.796 536.984 352.463C537.237 352.379 542.161 350.12 542.062 350.111ZM380.847 6.96881C383.745 7.22656 374.868 6.62797 372.253 6.44464C370.972 6.27436 380.482 6.91495 380.847 6.96881ZM584.742 167.779C584.623 167.511 587.235 177.032 586.291 173.258C586.068 172.31 584.803 167.869 584.742 167.779ZM540.665 85.4777C543.549 88.5869 536.995 81.2172 532.958 77.0661C530.719 74.7341 529.345 73.3619 531.162 75.2902C531.256 75.3899 531.949 76.1116 532.904 77.1171C535.624 79.9531 540.386 85.1534 540.665 85.4777ZM508.49 53.0671C509.322 53.8615 508.733 53.6482 505.304 50.3553C504.854 49.9227 507.049 51.8486 506.684 51.4923C506.486 51.263 498.846 44.3009 498.467 44.0142C498.077 43.6795 498.475 44.1424 498.078 43.8053C497.664 43.4453 493.333 39.5802 490.709 37.424C490.576 37.3144 490.449 37.2093 490.327 37.1092C485.494 33.17 484.886 32.8901 484.482 32.5617C483.301 31.6623 481.344 30.1256 478.883 28.4125C474.545 25.383 469.283 22.1314 463.515 19.3645C456.657 15.6258 448.529 14.8898 441.486 13.7535C438.134 13.2633 435.077 12.8376 432.52 12.4756C435.556 12.8845 438.547 13.2917 441.492 13.71C449.071 14.8822 456.353 15.5484 462.835 18.9005C462.161 18.6192 462.599 18.8355 463.548 19.2966C466.586 20.6931 474.239 24.9136 466.959 21.0315C469.379 22.1128 480.978 29.0528 490.76 37.3619C499.441 44.5396 507.198 51.8622 508.481 53.0584C508.484 53.0613 508.487 53.0642 508.49 53.0671ZM359.289 339.902C362.039 340.53 348.033 336.903 346.827 336.663C348.665 337.185 358.944 339.835 359.289 339.902ZM424.348 354.173C425.672 354.361 426.932 354.456 433.837 355.488C433.843 355.489 433.85 355.49 433.856 355.49C435.875 355.781 433.564 355.522 433.933 355.585C434.066 355.621 440.372 356.483 435.125 355.848C427.129 354.792 434.387 355.632 430.131 355.031C429.612 354.983 421.545 353.771 422.018 353.852C422.065 353.865 424.487 354.254 424.884 354.326C426.392 354.604 425.646 354.537 425.858 354.574C426.548 354.761 439.311 356.416 441.174 356.613C441.755 356.88 420.821 353.989 420.024 353.653C419.51 353.553 419.75 353.442 419.225 353.332C418.945 353.295 410.567 351.746 409.481 351.49C409.167 351.422 408.925 351.368 408.747 351.328C409.999 351.641 402.433 350.056 402.669 350.043C402.811 350.057 408.023 351.167 408.205 351.202C408.285 351.22 408.355 351.237 408.421 351.252C407.345 351.047 425.04 354.377 421.23 353.561C426.375 354.396 420.477 353.566 424.348 354.173ZM449.156 357.109C448.62 357.082 448.083 357.054 447.545 357.024C449.902 357.214 452.358 357.395 454.89 357.564C462.105 358.043 469.927 358.424 477.742 358.651C480.424 358.726 477.341 358.545 480.853 358.664C483.662 358.758 486.781 358.905 485.248 358.896C484.875 358.897 479.147 358.709 476.281 358.62C467.822 358.358 469.957 358.494 469.462 358.483C468.915 358.468 463.599 358.181 460.699 358.021C458.492 357.904 456.649 357.798 454.882 357.688C450.798 357.422 447.086 357.189 440.21 356.406C445.913 356.939 442.797 356.529 449.156 357.109ZM570.09 128.964C569.908 128.676 567.118 123.467 565.995 121.615C566.229 121.877 569.119 127.059 570.09 128.964ZM38.1764 166.204C39.4918 164.908 29.1499 174.087 31.9197 171.718C32.53 171.187 36.8707 167.351 38.1764 166.204ZM6.89834 215.435C6.64585 217.164 7.79109 210.212 7.82659 210.225C7.75137 210.221 6.86571 215.203 6.89834 215.435ZM559.96 337.581C560.229 337.381 563.627 333.886 563.707 333.744C566.113 331.587 554.628 342.77 559.96 337.581ZM46.6469 270.842C44.5158 269.508 45.7238 270.308 47.6952 271.561C50.6921 273.486 55.6047 276.279 52.5557 274.465C52.3682 274.358 49.3543 272.562 47.7209 271.52C47.1326 271.15 46.7158 270.885 46.6469 270.842ZM70.0037 283.579C68.6063 282.965 62.5509 279.92 62.469 279.882C62.3155 279.885 69.2609 283.354 70.0037 283.579ZM591.866 220.232C591.808 220.753 591.742 216.459 591.6 212.791C591.542 211.23 591.474 209.796 591.42 208.867C591.446 208.509 591.562 210.386 591.655 212.789C591.759 215.382 591.827 218.607 591.866 220.232ZM589.446 276.851C590.101 272.342 590.442 268.429 590.7 265.153C591.844 246.191 591.811 248.876 590.784 265.159C590.469 269.095 590.041 273.789 589.147 279.043C589.073 279.076 589.098 279.17 589.446 276.851ZM591.906 228.466C591.977 229.847 591.953 234.167 591.909 237.085C591.879 236.559 591.935 230.572 591.906 228.466ZM50.6766 155.48C48.9097 157.086 40.8576 163.987 42.2582 162.724C42.5756 162.42 51.3082 154.864 50.6766 155.48ZM562.064 335.362C561.547 335.902 567.112 329.69 568.638 327.459C568.853 327.175 569.005 326.968 569.067 326.886C569.664 326.085 569.392 326.512 568.678 327.488C567.007 329.89 562.526 334.956 562.064 335.362ZM584.216 167.546C583.599 165.637 581.982 160.163 580.839 156.672C581.428 158.239 583.372 164.553 584.216 167.546ZM589.864 193.167C589.852 192.94 589.071 187.95 589.014 187.732C588.437 183.632 590.626 197.753 589.864 193.167ZM249.481 13.2506C249.347 13.2177 246.886 12.5777 245.846 12.3054C245.6 12.2412 245.438 12.1997 245.413 12.1928C244.329 11.8993 244.841 12.0062 245.857 12.2609C247.95 12.7901 252.079 13.8826 249.481 13.2506Z" fill="black"/>
<path d="M208.695 218.948C205.377 218.948 202.366 218.323 199.661 217.073C196.957 215.801 194.809 213.971 193.218 211.585C191.627 209.176 190.832 206.267 190.832 202.858C190.832 199.858 191.423 197.426 192.605 195.562C193.786 193.676 195.366 192.198 197.343 191.13C199.32 190.062 201.502 189.267 203.889 188.744C206.298 188.198 208.718 187.767 211.15 187.448C214.332 187.039 216.911 186.733 218.889 186.528C220.889 186.301 222.343 185.926 223.252 185.403C224.184 184.88 224.65 183.971 224.65 182.676V182.403C224.65 179.039 223.73 176.426 221.889 174.562C220.07 172.698 217.309 171.767 213.605 171.767C209.764 171.767 206.752 172.608 204.57 174.289C202.389 175.971 200.855 177.767 199.968 179.676L192.332 176.948C193.695 173.767 195.514 171.289 197.786 169.517C200.082 167.721 202.582 166.471 205.286 165.767C208.014 165.039 210.695 164.676 213.332 164.676C215.014 164.676 216.945 164.88 219.127 165.289C221.332 165.676 223.457 166.483 225.502 167.71C227.57 168.937 229.286 170.789 230.65 173.267C232.014 175.744 232.695 179.062 232.695 183.221V217.721H224.65V210.63H224.241C223.695 211.767 222.786 212.983 221.514 214.278C220.241 215.573 218.548 216.676 216.434 217.585C214.32 218.494 211.741 218.948 208.695 218.948ZM209.923 211.721C213.105 211.721 215.786 211.096 217.968 209.846C220.173 208.596 221.832 206.983 222.945 205.005C224.082 203.028 224.65 200.948 224.65 198.767V191.403C224.309 191.812 223.559 192.187 222.4 192.528C221.264 192.846 219.945 193.13 218.445 193.38C216.968 193.608 215.525 193.812 214.116 193.994C212.73 194.153 211.605 194.289 210.741 194.403C208.65 194.676 206.695 195.119 204.877 195.733C203.082 196.323 201.627 197.221 200.514 198.426C199.423 199.608 198.877 201.221 198.877 203.267C198.877 206.062 199.911 208.176 201.98 209.608C204.07 211.017 206.718 211.721 209.923 211.721ZM248.471 217.721V147.903H256.516V173.676H257.198C257.789 172.767 258.607 171.608 259.653 170.198C260.721 168.767 262.244 167.494 264.221 166.38C266.221 165.244 268.926 164.676 272.335 164.676C276.744 164.676 280.63 165.778 283.994 167.983C287.357 170.187 289.982 173.312 291.869 177.358C293.755 181.403 294.698 186.176 294.698 191.676C294.698 197.221 293.755 202.028 291.869 206.096C289.982 210.142 287.369 213.278 284.028 215.505C280.687 217.71 276.835 218.812 272.471 218.812C269.107 218.812 266.414 218.255 264.391 217.142C262.369 216.005 260.812 214.721 259.721 213.289C258.63 211.835 257.789 210.63 257.198 209.676H256.244V217.721H248.471ZM256.38 191.539C256.38 195.494 256.96 198.983 258.119 202.005C259.278 205.005 260.971 207.358 263.198 209.062C265.426 210.744 268.153 211.585 271.38 211.585C274.744 211.585 277.551 210.698 279.801 208.926C282.073 207.13 283.778 204.721 284.914 201.698C286.073 198.653 286.653 195.267 286.653 191.539C286.653 187.858 286.085 184.539 284.948 181.585C283.835 178.608 282.141 176.255 279.869 174.528C277.619 172.778 274.789 171.903 271.38 171.903C268.107 171.903 265.357 172.733 263.13 174.392C260.903 176.028 259.221 178.323 258.085 181.278C256.948 184.21 256.38 187.63 256.38 191.539ZM328.278 218.812C323.551 218.812 319.403 217.687 315.835 215.437C312.289 213.187 309.516 210.039 307.516 205.994C305.539 201.948 304.551 197.221 304.551 191.812C304.551 186.358 305.539 181.596 307.516 177.528C309.516 173.46 312.289 170.301 315.835 168.051C319.403 165.801 323.551 164.676 328.278 164.676C333.005 164.676 337.141 165.801 340.687 168.051C344.255 170.301 347.028 173.46 349.005 177.528C351.005 181.596 352.005 186.358 352.005 191.812C352.005 197.221 351.005 201.948 349.005 205.994C347.028 210.039 344.255 213.187 340.687 215.437C337.141 217.687 333.005 218.812 328.278 218.812ZM328.278 211.585C331.869 211.585 334.823 210.664 337.141 208.823C339.46 206.983 341.176 204.562 342.289 201.562C343.403 198.562 343.96 195.312 343.96 191.812C343.96 188.312 343.403 185.051 342.289 182.028C341.176 179.005 339.46 176.562 337.141 174.698C334.823 172.835 331.869 171.903 328.278 171.903C324.687 171.903 321.732 172.835 319.414 174.698C317.096 176.562 315.38 179.005 314.266 182.028C313.153 185.051 312.596 188.312 312.596 191.812C312.596 195.312 313.153 198.562 314.266 201.562C315.38 204.562 317.096 206.983 319.414 208.823C321.732 210.664 324.687 211.585 328.278 211.585ZM397.286 196.312V165.358H405.332V217.721H397.286V208.858H396.741C395.514 211.517 393.605 213.778 391.014 215.642C388.423 217.483 385.15 218.403 381.195 218.403C377.923 218.403 375.014 217.687 372.468 216.255C369.923 214.801 367.923 212.619 366.468 209.71C365.014 206.778 364.286 203.085 364.286 198.63V165.358H372.332V198.085C372.332 201.903 373.4 204.948 375.536 207.221C377.695 209.494 380.445 210.63 383.786 210.63C385.786 210.63 387.82 210.119 389.889 209.096C391.98 208.073 393.73 206.505 395.139 204.392C396.57 202.278 397.286 199.585 397.286 196.312ZM442.84 165.358V172.176H415.704V165.358H442.84ZM423.613 152.812H431.659V202.721C431.659 204.994 431.988 206.698 432.647 207.835C433.329 208.948 434.193 209.698 435.238 210.085C436.306 210.448 437.431 210.63 438.613 210.63C439.499 210.63 440.227 210.585 440.795 210.494C441.363 210.38 441.818 210.289 442.159 210.221L443.795 217.448C443.249 217.653 442.488 217.858 441.511 218.062C440.534 218.289 439.295 218.403 437.795 218.403C435.522 218.403 433.295 217.914 431.113 216.937C428.954 215.96 427.159 214.471 425.727 212.471C424.318 210.471 423.613 207.948 423.613 204.903V152.812Z" fill="black"/>
</svg>
